<?xml version="1.0" standalone="no"?>
<!DOCTYPE svg PUBLIC "-//W3C//DTD SVG 20010904//EN"
 "http://www.w3.org/TR/2001/REC-SVG-20010904/DTD/svg10.dtd">
<svg version="1.0" xmlns="http://www.w3.org/2000/svg"
 width="256.000000pt" height="256.000000pt" viewBox="0 0 256.000000 256.000000"
 preserveAspectRatio="xMidYMid meet">

<g transform="translate(0.000000,256.000000) scale(0.100000,-0.100000)"
fill="#000000" stroke="none">
<path d="M2323 1923 l-32 -4 -3 -127 -3 -127 -142 -3 -143 -3 0 131 0 130 -35
0 -35 0 0 -310 0 -310 35 0 35 0 0 150 0 151 143 -3 142 -3 5 -149 5 -149 99
304 c55 167 101 310 104 317 3 9 -14 12 -69 10 -41 0 -88 -3 -106 -5z"/>
<path d="M1548 1889 c-54 -15 -121 -79 -149 -141 -19 -43 -23 -70 -24 -148 0
-117 22 -186 80 -246 80 -84 222 -87 303 -6 34 34 81 127 70 138 -3 2 -18 7
-35 10 -28 6 -32 3 -38 -25 -13 -61 -86 -121 -147 -121 -12 0 -41 9 -65 21
-64 31 -94 88 -100 192 -7 113 13 182 67 231 37 33 45 36 99 36 68 0 106 -24
135 -84 15 -33 18 -34 46 -24 17 5 30 12 30 15 0 3 -12 28 -27 55 -45 83 -148
124 -245 97z"/>
<path d="M80 1596 l0 -296 30 0 30 0 0 120 0 120 88 0 c139 0 197 25 228 97
20 45 17 120 -5 170 -30 65 -60 76 -228 81 l-143 5 0 -297z m295 199 c24 -23
29 -43 26 -90 -6 -79 -33 -95 -166 -95 l-95 0 0 105 0 105 105 0 c99 0 107 -2
130 -25z"/>
<path d="M652 1873 c-10 -20 -192 -557 -192 -567 0 -3 15 -6 33 -6 33 0 33 0
60 90 l28 91 112 -3 112 -3 30 -87 29 -88 37 0 37 0 -38 108 c-22 59 -69 191
-106 295 l-67 187 -33 0 c-22 0 -36 -6 -42 -17z m80 -181 c20 -64 40 -125 43
-135 6 -15 -2 -17 -84 -17 -50 0 -91 2 -91 4 0 3 13 40 29 83 15 43 34 102 41
131 6 28 15 52 19 52 4 0 23 -53 43 -118z"/>
<path d="M910 1855 l0 -35 85 0 85 0 0 -260 0 -260 30 0 30 0 0 260 0 260 85
0 85 0 0 35 0 35 -200 0 -200 0 0 -35z"/>
<path d="M925 1207 c4 -13 48 -151 99 -307 81 -252 94 -285 114 -288 l22 -3 0
310 0 311 -120 0 -120 0 5 -23z"/>
<path d="M1410 1219 c0 -6 11 -58 24 -117 13 -59 30 -133 36 -165 6 -32 13
-57 15 -55 3 3 75 334 75 344 0 2 -34 4 -75 4 -47 0 -75 -4 -75 -11z"/>
<path d="M1800 920 l0 -310 50 0 50 0 0 310 0 310 -50 0 -50 0 0 -310z"/>
<path d="M2336 1195 c87 -93 60 -285 -49 -342 -19 -10 -65 -18 -114 -21 l-83
-5 0 -108 0 -109 185 0 185 0 0 310 0 310 -79 0 -78 0 33 -35z"/>
<path d="M2090 1041 l0 -71 35 0 c40 0 85 36 85 68 0 34 -32 63 -78 69 l-42 6
0 -72z"/>
<path d="M782 948 c-12 -46 -22 -86 -22 -90 0 -5 23 -8 50 -8 28 0 50 3 50 8
0 18 -44 172 -49 172 -4 0 -17 -37 -29 -82z"/>
<path d="M1602 818 c-23 -106 -42 -196 -42 -200 0 -5 20 -8 45 -8 l45 0 0 200
c0 110 -1 200 -3 200 -2 0 -22 -87 -45 -192z"/>
<path d="M1321 808 l-1 -198 45 0 c25 0 45 3 45 8 0 4 -20 93 -44 197 l-44
190 -1 -197z"/>
<path d="M710 674 c-24 -62 -21 -64 101 -64 l111 0 -7 37 c-4 21 -9 41 -11 45
-3 5 -46 8 -95 8 -87 0 -90 -1 -99 -26z"/>
</g>
</svg>
